<mxfile host="app.diagrams.net" modified="2021-03-16T01:59:55.551Z" agent="5.0 (Windows NT 10.0; Win64; x64) AppleWebKit/537.36 (KHTML, like Gecko) Chrome/89.0.4389.82 Safari/537.36" etag="RU6SrMXWw-utfVXujZgG" version="14.4.8" type="github">
  <diagram id="W1GqJup9wNc6WtiXOJ7W" name="Page-1">
    <mxGraphModel dx="1662" dy="794" grid="1" gridSize="10" guides="1" tooltips="1" connect="1" arrows="1" fold="1" page="1" pageScale="1" pageWidth="850" pageHeight="1100" background="#F1FAEE" math="0" shadow="0">
      <root>
        <mxCell id="0" />
        <mxCell id="1" parent="0" />
        <mxCell id="VJS7mcSHAPVx8ojferBD-5" value="" style="rounded=0;whiteSpace=wrap;html=1;labelBorderColor=none;fontSize=17;fillColor=#A8DADC;strokeColor=#457B9D;fontColor=#1D3557;" parent="1" vertex="1">
          <mxGeometry x="570" y="380" width="120" height="60" as="geometry" />
        </mxCell>
        <mxCell id="VJS7mcSHAPVx8ojferBD-6" value="" style="rounded=0;whiteSpace=wrap;html=1;labelBorderColor=none;fontSize=17;fillColor=#A8DADC;strokeColor=#457B9D;fontColor=#1D3557;" parent="1" vertex="1">
          <mxGeometry x="380" y="240" width="120" height="60" as="geometry" />
        </mxCell>
        <mxCell id="VJS7mcSHAPVx8ojferBD-7" value="WheelSysterm" style="rounded=0;whiteSpace=wrap;html=1;labelBorderColor=none;fontSize=17;fillColor=#A8DADC;strokeColor=#457B9D;fontColor=#1D3557;" parent="1" vertex="1">
          <mxGeometry x="380" y="380" width="120" height="60" as="geometry" />
        </mxCell>
        <mxCell id="VJS7mcSHAPVx8ojferBD-8" value="Listing" style="rounded=0;whiteSpace=wrap;html=1;labelBorderColor=none;fontSize=17;fillColor=#A8DADC;strokeColor=#457B9D;fontColor=#1D3557;" parent="1" vertex="1">
          <mxGeometry x="790" y="250" width="120" height="60" as="geometry" />
        </mxCell>
        <mxCell id="VJS7mcSHAPVx8ojferBD-9" value="Depreciation Factor" style="rounded=0;whiteSpace=wrap;html=1;labelBorderColor=none;fontSize=17;fillColor=#A8DADC;strokeColor=#457B9D;fontColor=#1D3557;" parent="1" vertex="1">
          <mxGeometry x="570" y="520" width="120" height="60" as="geometry" />
        </mxCell>
        <mxCell id="VJS7mcSHAPVx8ojferBD-10" value="FuelSpecs" style="rounded=0;whiteSpace=wrap;html=1;labelBorderColor=none;fontSize=17;fillColor=#A8DADC;strokeColor=#457B9D;fontColor=#1D3557;" parent="1" vertex="1">
          <mxGeometry x="750" y="380" width="120" height="60" as="geometry" />
        </mxCell>
        <mxCell id="VJS7mcSHAPVx8ojferBD-11" value="TrimPackage" style="rounded=0;whiteSpace=wrap;html=1;labelBorderColor=none;fontSize=17;fillColor=#A8DADC;strokeColor=#457B9D;fontColor=#1D3557;" parent="1" vertex="1">
          <mxGeometry x="780" y="520" width="120" height="60" as="geometry" />
        </mxCell>
        <mxCell id="VJS7mcSHAPVx8ojferBD-12" value="Engine" style="rounded=0;whiteSpace=wrap;html=1;labelBorderColor=none;fontSize=17;fillColor=#A8DADC;strokeColor=#457B9D;fontColor=#1D3557;" parent="1" vertex="1">
          <mxGeometry x="380" y="520" width="120" height="60" as="geometry" />
        </mxCell>
        <mxCell id="VJS7mcSHAPVx8ojferBD-13" value="" style="endArrow=none;html=1;entryX=0;entryY=0.5;entryDx=0;entryDy=0;labelBorderColor=none;fontSize=17;strokeColor=#457B9D;fontColor=#1D3557;labelBackgroundColor=#F1FAEE;" parent="1" target="VJS7mcSHAPVx8ojferBD-5" edge="1">
          <mxGeometry width="50" height="50" relative="1" as="geometry">
            <mxPoint x="500" y="410" as="sourcePoint" />
            <mxPoint x="550" y="360" as="targetPoint" />
          </mxGeometry>
        </mxCell>
        <mxCell id="VJS7mcSHAPVx8ojferBD-14" value="" style="endArrow=none;html=1;entryX=0.5;entryY=1;entryDx=0;entryDy=0;exitX=0.5;exitY=0;exitDx=0;exitDy=0;labelBorderColor=none;fontSize=17;strokeColor=#457B9D;fontColor=#1D3557;labelBackgroundColor=#F1FAEE;" parent="1" source="VJS7mcSHAPVx8ojferBD-9" target="VJS7mcSHAPVx8ojferBD-5" edge="1">
          <mxGeometry width="50" height="50" relative="1" as="geometry">
            <mxPoint x="617" y="510" as="sourcePoint" />
            <mxPoint x="680" y="460" as="targetPoint" />
            <Array as="points">
              <mxPoint x="630" y="480" />
            </Array>
          </mxGeometry>
        </mxCell>
        <mxCell id="VJS7mcSHAPVx8ojferBD-16" value="" style="endArrow=none;html=1;labelBorderColor=none;fontSize=17;strokeColor=#457B9D;fontColor=#1D3557;labelBackgroundColor=#F1FAEE;" parent="1" edge="1">
          <mxGeometry width="50" height="50" relative="1" as="geometry">
            <mxPoint x="600" y="380" as="sourcePoint" />
            <mxPoint x="430" y="300" as="targetPoint" />
            <Array as="points">
              <mxPoint x="600" y="340" />
              <mxPoint x="430" y="340" />
            </Array>
          </mxGeometry>
        </mxCell>
        <mxCell id="VJS7mcSHAPVx8ojferBD-18" value="" style="endArrow=none;html=1;labelBorderColor=none;fontSize=17;strokeColor=#457B9D;fontColor=#1D3557;labelBackgroundColor=#F1FAEE;" parent="1" edge="1">
          <mxGeometry width="50" height="50" relative="1" as="geometry">
            <mxPoint x="510" y="432.5" as="sourcePoint" />
            <mxPoint x="510" y="387.5" as="targetPoint" />
          </mxGeometry>
        </mxCell>
        <mxCell id="VJS7mcSHAPVx8ojferBD-19" value="" style="endArrow=none;html=1;labelBorderColor=none;fontSize=17;strokeColor=#457B9D;fontColor=#1D3557;labelBackgroundColor=#F1FAEE;" parent="1" edge="1">
          <mxGeometry width="50" height="50" relative="1" as="geometry">
            <mxPoint x="560" y="432.5" as="sourcePoint" />
            <mxPoint x="560" y="387.5" as="targetPoint" />
          </mxGeometry>
        </mxCell>
        <mxCell id="VJS7mcSHAPVx8ojferBD-21" value="" style="endArrow=none;html=1;labelBorderColor=none;fontSize=17;strokeColor=#457B9D;fontColor=#1D3557;labelBackgroundColor=#F1FAEE;" parent="1" edge="1">
          <mxGeometry width="50" height="50" relative="1" as="geometry">
            <mxPoint x="840" y="520" as="sourcePoint" />
            <mxPoint x="670" y="440" as="targetPoint" />
            <Array as="points">
              <mxPoint x="840" y="480" />
              <mxPoint x="670" y="480" />
            </Array>
          </mxGeometry>
        </mxCell>
        <mxCell id="VJS7mcSHAPVx8ojferBD-22" value="" style="endArrow=none;html=1;entryX=0.5;entryY=0;entryDx=0;entryDy=0;labelBorderColor=none;fontSize=17;strokeColor=#457B9D;fontColor=#1D3557;labelBackgroundColor=#F1FAEE;" parent="1" target="VJS7mcSHAPVx8ojferBD-12" edge="1">
          <mxGeometry width="50" height="50" relative="1" as="geometry">
            <mxPoint x="580" y="443" as="sourcePoint" />
            <mxPoint x="440" y="440" as="targetPoint" />
            <Array as="points">
              <mxPoint x="580" y="460" />
              <mxPoint x="580" y="480" />
              <mxPoint x="440" y="480" />
            </Array>
          </mxGeometry>
        </mxCell>
        <mxCell id="VJS7mcSHAPVx8ojferBD-23" value="" style="endArrow=none;html=1;entryX=0;entryY=0.5;entryDx=0;entryDy=0;labelBorderColor=none;fontSize=17;strokeColor=#457B9D;fontColor=#1D3557;labelBackgroundColor=#F1FAEE;" parent="1" target="VJS7mcSHAPVx8ojferBD-10" edge="1">
          <mxGeometry width="50" height="50" relative="1" as="geometry">
            <mxPoint x="690" y="410" as="sourcePoint" />
            <mxPoint x="680" y="380" as="targetPoint" />
          </mxGeometry>
        </mxCell>
        <mxCell id="VJS7mcSHAPVx8ojferBD-24" value="" style="endArrow=none;html=1;entryX=0.75;entryY=0;entryDx=0;entryDy=0;labelBorderColor=none;fontSize=17;strokeColor=#457B9D;fontColor=#1D3557;labelBackgroundColor=#F1FAEE;" parent="1" target="VJS7mcSHAPVx8ojferBD-5" edge="1">
          <mxGeometry width="50" height="50" relative="1" as="geometry">
            <mxPoint x="820" y="310" as="sourcePoint" />
            <mxPoint x="659" y="368.02" as="targetPoint" />
            <Array as="points">
              <mxPoint x="820" y="348" />
              <mxPoint x="659" y="348.02" />
            </Array>
          </mxGeometry>
        </mxCell>
        <mxCell id="VJS7mcSHAPVx8ojferBD-25" value="" style="endArrow=none;html=1;labelBorderColor=none;fontSize=17;strokeColor=#457B9D;fontColor=#1D3557;labelBackgroundColor=#F1FAEE;" parent="1" edge="1">
          <mxGeometry width="50" height="50" relative="1" as="geometry">
            <mxPoint x="580" y="370" as="sourcePoint" />
            <mxPoint x="620" y="370" as="targetPoint" />
          </mxGeometry>
        </mxCell>
        <mxCell id="VJS7mcSHAPVx8ojferBD-26" value="" style="endArrow=none;html=1;labelBorderColor=none;fontSize=17;strokeColor=#457B9D;fontColor=#1D3557;labelBackgroundColor=#F1FAEE;" parent="1" edge="1">
          <mxGeometry width="50" height="50" relative="1" as="geometry">
            <mxPoint x="640" y="370" as="sourcePoint" />
            <mxPoint x="680" y="370" as="targetPoint" />
          </mxGeometry>
        </mxCell>
        <mxCell id="VJS7mcSHAPVx8ojferBD-27" value="" style="endArrow=none;html=1;labelBorderColor=none;fontSize=17;strokeColor=#457B9D;fontColor=#1D3557;labelBackgroundColor=#F1FAEE;" parent="1" edge="1">
          <mxGeometry width="50" height="50" relative="1" as="geometry">
            <mxPoint x="700" y="430" as="sourcePoint" />
            <mxPoint x="700" y="390" as="targetPoint" />
          </mxGeometry>
        </mxCell>
        <mxCell id="VJS7mcSHAPVx8ojferBD-28" value="" style="endArrow=none;html=1;labelBorderColor=none;fontSize=17;strokeColor=#457B9D;fontColor=#1D3557;labelBackgroundColor=#F1FAEE;" parent="1" edge="1">
          <mxGeometry width="50" height="50" relative="1" as="geometry">
            <mxPoint x="660" y="460" as="sourcePoint" />
            <mxPoint x="694" y="460" as="targetPoint" />
            <Array as="points" />
          </mxGeometry>
        </mxCell>
        <mxCell id="VJS7mcSHAPVx8ojferBD-29" value="" style="endArrow=none;html=1;labelBorderColor=none;fontSize=17;strokeColor=#457B9D;fontColor=#1D3557;labelBackgroundColor=#F1FAEE;" parent="1" edge="1">
          <mxGeometry width="50" height="50" relative="1" as="geometry">
            <mxPoint x="610" y="460" as="sourcePoint" />
            <mxPoint x="650" y="460" as="targetPoint" />
          </mxGeometry>
        </mxCell>
        <mxCell id="VJS7mcSHAPVx8ojferBD-30" value="" style="endArrow=none;html=1;labelBorderColor=none;fontSize=17;strokeColor=#457B9D;fontColor=#1D3557;labelBackgroundColor=#F1FAEE;" parent="1" edge="1">
          <mxGeometry width="50" height="50" relative="1" as="geometry">
            <mxPoint x="560" y="460" as="sourcePoint" />
            <mxPoint x="590" y="460" as="targetPoint" />
          </mxGeometry>
        </mxCell>
        <mxCell id="VJS7mcSHAPVx8ojferBD-31" value="Car" style="text;html=1;strokeColor=none;fillColor=none;align=center;verticalAlign=middle;whiteSpace=wrap;rounded=0;labelBorderColor=none;fontSize=17;fontColor=#1D3557;" parent="1" vertex="1">
          <mxGeometry x="600" y="400" width="70" height="20" as="geometry" />
        </mxCell>
        <mxCell id="VJS7mcSHAPVx8ojferBD-32" value="Interior" style="text;html=1;strokeColor=none;fillColor=none;align=center;verticalAlign=middle;whiteSpace=wrap;rounded=0;labelBorderColor=none;fontSize=17;fontColor=#1D3557;" parent="1" vertex="1">
          <mxGeometry x="410" y="260" width="40" height="20" as="geometry" />
        </mxCell>
        <mxCell id="VJS7mcSHAPVx8ojferBD-43" value="" style="endArrow=none;html=1;labelBorderColor=none;fontSize=17;strokeColor=#457B9D;fontColor=#1D3557;labelBackgroundColor=#F1FAEE;" parent="1" edge="1">
          <mxGeometry width="50" height="50" relative="1" as="geometry">
            <mxPoint x="610" y="470" as="sourcePoint" />
            <mxPoint x="650" y="470" as="targetPoint" />
            <Array as="points">
              <mxPoint x="640" y="470" />
            </Array>
          </mxGeometry>
        </mxCell>
        <mxCell id="VJS7mcSHAPVx8ojferBD-45" value="" style="endArrow=none;html=1;labelBorderColor=none;fontSize=17;strokeColor=#457B9D;fontColor=#1D3557;labelBackgroundColor=#F1FAEE;" parent="1" edge="1">
          <mxGeometry width="50" height="50" relative="1" as="geometry">
            <mxPoint x="610" y="510" as="sourcePoint" />
            <mxPoint x="650" y="510" as="targetPoint" />
            <Array as="points">
              <mxPoint x="640" y="510" />
            </Array>
          </mxGeometry>
        </mxCell>
        <mxCell id="VJS7mcSHAPVx8ojferBD-48" value="" style="endArrow=none;html=1;labelBorderColor=none;fontSize=17;strokeColor=#457B9D;fontColor=#1D3557;labelBackgroundColor=#F1FAEE;" parent="1" edge="1">
          <mxGeometry width="50" height="50" relative="1" as="geometry">
            <mxPoint x="660" y="470" as="sourcePoint" />
            <mxPoint x="700" y="470" as="targetPoint" />
            <Array as="points">
              <mxPoint x="690" y="470" />
            </Array>
          </mxGeometry>
        </mxCell>
        <mxCell id="VJS7mcSHAPVx8ojferBD-49" value="" style="endArrow=none;html=1;labelBorderColor=none;fontSize=17;strokeColor=#457B9D;fontColor=#1D3557;labelBackgroundColor=#F1FAEE;" parent="1" edge="1">
          <mxGeometry width="50" height="50" relative="1" as="geometry">
            <mxPoint x="820" y="510" as="sourcePoint" />
            <mxPoint x="860" y="510" as="targetPoint" />
            <Array as="points">
              <mxPoint x="850" y="510" />
            </Array>
          </mxGeometry>
        </mxCell>
        <mxCell id="VJS7mcSHAPVx8ojferBD-50" value="" style="endArrow=none;html=1;labelBorderColor=none;fontSize=17;strokeColor=#457B9D;fontColor=#1D3557;labelBackgroundColor=#F1FAEE;" parent="1" edge="1">
          <mxGeometry width="50" height="50" relative="1" as="geometry">
            <mxPoint x="560" y="470" as="sourcePoint" />
            <mxPoint x="590" y="470" as="targetPoint" />
            <Array as="points">
              <mxPoint x="590" y="470" />
            </Array>
          </mxGeometry>
        </mxCell>
        <mxCell id="VJS7mcSHAPVx8ojferBD-51" value="" style="endArrow=none;html=1;labelBorderColor=none;fontSize=17;strokeColor=#457B9D;fontColor=#1D3557;labelBackgroundColor=#F1FAEE;" parent="1" edge="1">
          <mxGeometry width="50" height="50" relative="1" as="geometry">
            <mxPoint x="420" y="510" as="sourcePoint" />
            <mxPoint x="460" y="510" as="targetPoint" />
            <Array as="points">
              <mxPoint x="450" y="510" />
            </Array>
          </mxGeometry>
        </mxCell>
        <mxCell id="VJS7mcSHAPVx8ojferBD-52" value="" style="endArrow=none;html=1;labelBorderColor=none;fontSize=17;strokeColor=#457B9D;fontColor=#1D3557;labelBackgroundColor=#F1FAEE;" parent="1" edge="1">
          <mxGeometry width="50" height="50" relative="1" as="geometry">
            <mxPoint x="410" y="310" as="sourcePoint" />
            <mxPoint x="450" y="310" as="targetPoint" />
            <Array as="points">
              <mxPoint x="440" y="310" />
            </Array>
          </mxGeometry>
        </mxCell>
        <mxCell id="VJS7mcSHAPVx8ojferBD-55" value="" style="endArrow=none;html=1;labelBorderColor=none;fontSize=17;strokeColor=#457B9D;fontColor=#1D3557;labelBackgroundColor=#F1FAEE;" parent="1" edge="1">
          <mxGeometry width="50" height="50" relative="1" as="geometry">
            <mxPoint x="550" y="432.4999999999999" as="sourcePoint" />
            <mxPoint x="550" y="387.4999999999999" as="targetPoint" />
          </mxGeometry>
        </mxCell>
        <mxCell id="VJS7mcSHAPVx8ojferBD-57" value="" style="endArrow=none;html=1;labelBorderColor=none;fontSize=17;strokeColor=#457B9D;fontColor=#1D3557;labelBackgroundColor=#F1FAEE;" parent="1" edge="1">
          <mxGeometry width="50" height="50" relative="1" as="geometry">
            <mxPoint x="710" y="432.5" as="sourcePoint" />
            <mxPoint x="710" y="387.5" as="targetPoint" />
          </mxGeometry>
        </mxCell>
        <mxCell id="VJS7mcSHAPVx8ojferBD-58" value="" style="endArrow=none;html=1;labelBorderColor=none;fontSize=17;strokeColor=#457B9D;fontColor=#1D3557;labelBackgroundColor=#F1FAEE;" parent="1" edge="1">
          <mxGeometry width="50" height="50" relative="1" as="geometry">
            <mxPoint x="740" y="432.5" as="sourcePoint" />
            <mxPoint x="740" y="387.4999999999999" as="targetPoint" />
          </mxGeometry>
        </mxCell>
        <mxCell id="VJS7mcSHAPVx8ojferBD-59" value="" style="endArrow=none;html=1;labelBorderColor=none;fontSize=17;strokeColor=#457B9D;fontColor=#1D3557;labelBackgroundColor=#F1FAEE;" parent="1" edge="1">
          <mxGeometry width="50" height="50" relative="1" as="geometry">
            <mxPoint x="1040" y="390" as="sourcePoint" />
            <mxPoint x="870" y="310" as="targetPoint" />
            <Array as="points">
              <mxPoint x="1040" y="350" />
              <mxPoint x="870" y="350" />
            </Array>
          </mxGeometry>
        </mxCell>
        <mxCell id="VJS7mcSHAPVx8ojferBD-62" value="" style="endArrow=none;html=1;labelBorderColor=none;fontSize=17;strokeColor=#457B9D;fontColor=#1D3557;labelBackgroundColor=#F1FAEE;" parent="1" edge="1">
          <mxGeometry width="50" height="50" relative="1" as="geometry">
            <mxPoint x="800" y="320" as="sourcePoint" />
            <mxPoint x="840" y="320" as="targetPoint" />
            <Array as="points" />
          </mxGeometry>
        </mxCell>
        <mxCell id="VJS7mcSHAPVx8ojferBD-77" style="edgeStyle=orthogonalEdgeStyle;rounded=0;orthogonalLoop=1;jettySize=auto;html=1;exitX=1;exitY=0.5;exitDx=0;exitDy=0;entryX=0;entryY=0.5;entryDx=0;entryDy=0;endArrow=none;endFill=0;labelBorderColor=none;fontSize=17;strokeColor=#457B9D;fontColor=#1D3557;labelBackgroundColor=#F1FAEE;" parent="1" source="VJS7mcSHAPVx8ojferBD-69" target="VJS7mcSHAPVx8ojferBD-70" edge="1">
          <mxGeometry relative="1" as="geometry" />
        </mxCell>
        <mxCell id="VJS7mcSHAPVx8ojferBD-69" value="User" style="rounded=0;whiteSpace=wrap;html=1;labelBorderColor=none;fontSize=17;fillColor=#A8DADC;strokeColor=#457B9D;fontColor=#1D3557;" parent="1" vertex="1">
          <mxGeometry x="1000" y="390" width="120" height="60" as="geometry" />
        </mxCell>
        <mxCell id="VJS7mcSHAPVx8ojferBD-70" value="SavedListing" style="rounded=0;whiteSpace=wrap;html=1;labelBorderColor=none;fontSize=17;fillColor=#A8DADC;strokeColor=#457B9D;fontColor=#1D3557;" parent="1" vertex="1">
          <mxGeometry x="1230" y="390" width="120" height="60" as="geometry" />
        </mxCell>
        <mxCell id="uAfk1vnwgpmhD_dbk1Fe-1" style="edgeStyle=orthogonalEdgeStyle;curved=0;rounded=1;sketch=0;orthogonalLoop=1;jettySize=auto;html=1;exitX=0.5;exitY=0;exitDx=0;exitDy=0;strokeColor=#457B9D;fillColor=#A8DADC;fontColor=#1D3557;endArrow=none;endFill=0;entryX=0.329;entryY=0.953;entryDx=0;entryDy=0;entryPerimeter=0;" parent="1" source="VJS7mcSHAPVx8ojferBD-72" target="VJS7mcSHAPVx8ojferBD-69" edge="1">
          <mxGeometry relative="1" as="geometry">
            <mxPoint x="1040" y="452" as="targetPoint" />
          </mxGeometry>
        </mxCell>
        <mxCell id="VJS7mcSHAPVx8ojferBD-72" value="Address" style="rounded=0;whiteSpace=wrap;html=1;labelBorderColor=none;fontSize=17;fillColor=#A8DADC;strokeColor=#457B9D;fontColor=#1D3557;" parent="1" vertex="1">
          <mxGeometry x="980" y="520" width="120" height="60" as="geometry" />
        </mxCell>
        <mxCell id="VJS7mcSHAPVx8ojferBD-83" value="" style="endArrow=none;html=1;labelBorderColor=none;fontSize=17;strokeColor=#457B9D;fontColor=#1D3557;labelBackgroundColor=#F1FAEE;" parent="1" edge="1">
          <mxGeometry width="50" height="50" relative="1" as="geometry">
            <mxPoint x="850" y="330" as="sourcePoint" />
            <mxPoint x="890" y="330" as="targetPoint" />
          </mxGeometry>
        </mxCell>
        <mxCell id="VJS7mcSHAPVx8ojferBD-84" value="" style="endArrow=none;html=1;labelBorderColor=none;fontSize=17;strokeColor=#457B9D;fontColor=#1D3557;labelBackgroundColor=#F1FAEE;" parent="1" edge="1">
          <mxGeometry width="50" height="50" relative="1" as="geometry">
            <mxPoint x="1015" y="379.31" as="sourcePoint" />
            <mxPoint x="1065" y="379.31" as="targetPoint" />
          </mxGeometry>
        </mxCell>
        <mxCell id="VJS7mcSHAPVx8ojferBD-85" value="" style="endArrow=none;html=1;labelBorderColor=none;fontSize=17;strokeColor=#457B9D;fontColor=#1D3557;labelBackgroundColor=#F1FAEE;" parent="1" edge="1">
          <mxGeometry width="50" height="50" relative="1" as="geometry">
            <mxPoint x="1220" y="450" as="sourcePoint" />
            <mxPoint x="1220" y="390" as="targetPoint" />
          </mxGeometry>
        </mxCell>
        <mxCell id="VJS7mcSHAPVx8ojferBD-87" value="" style="endArrow=none;html=1;labelBorderColor=none;fontSize=17;strokeColor=#457B9D;fontColor=#1D3557;labelBackgroundColor=#F1FAEE;" parent="1" edge="1">
          <mxGeometry width="50" height="50" relative="1" as="geometry">
            <mxPoint x="1210" y="450" as="sourcePoint" />
            <mxPoint x="1210" y="390" as="targetPoint" />
            <Array as="points" />
          </mxGeometry>
        </mxCell>
        <mxCell id="VJS7mcSHAPVx8ojferBD-88" value="&lt;font color=&quot;#ff0000&quot;&gt;How to represent cardinality between User and SavedListing&lt;/font&gt;" style="text;html=1;strokeColor=none;fillColor=none;align=center;verticalAlign=middle;whiteSpace=wrap;rounded=0;labelBorderColor=none;fontSize=17;fontColor=#1D3557;" parent="1" vertex="1">
          <mxGeometry x="1390" y="390" width="280" height="70" as="geometry" />
        </mxCell>
        <mxCell id="ADusKvkkRDpPRXBpd2Ap-1" value="&lt;font style=&quot;font-size: 36px&quot;&gt;Relational Schema&lt;/font&gt;" style="text;html=1;align=center;verticalAlign=middle;resizable=0;points=[];autosize=1;fontColor=#1D3557;" parent="1" vertex="1">
          <mxGeometry x="710" y="70" width="320" height="30" as="geometry" />
        </mxCell>
        <mxCell id="uAfk1vnwgpmhD_dbk1Fe-2" value="" style="endArrow=none;html=1;labelBorderColor=none;fontSize=17;strokeColor=#457B9D;fontColor=#1D3557;labelBackgroundColor=#F1FAEE;" parent="1" edge="1">
          <mxGeometry width="50" height="50" relative="1" as="geometry">
            <mxPoint x="1020" y="470" as="sourcePoint" />
            <mxPoint x="1060" y="470" as="targetPoint" />
            <Array as="points">
              <mxPoint x="1050" y="470" />
            </Array>
          </mxGeometry>
        </mxCell>
        <mxCell id="uAfk1vnwgpmhD_dbk1Fe-3" value="" style="endArrow=none;html=1;labelBorderColor=none;fontSize=17;strokeColor=#457B9D;fontColor=#1D3557;labelBackgroundColor=#F1FAEE;" parent="1" edge="1">
          <mxGeometry width="50" height="50" relative="1" as="geometry">
            <mxPoint x="1020" y="510" as="sourcePoint" />
            <mxPoint x="1060" y="510" as="targetPoint" />
            <Array as="points">
              <mxPoint x="1050" y="510" />
            </Array>
          </mxGeometry>
        </mxCell>
        <mxCell id="uAfk1vnwgpmhD_dbk1Fe-4" value="" style="endArrow=none;html=1;labelBorderColor=none;fontSize=17;strokeColor=#457B9D;fontColor=#1D3557;labelBackgroundColor=#F1FAEE;" parent="1" edge="1">
          <mxGeometry width="50" height="50" relative="1" as="geometry">
            <mxPoint x="1015" y="460" as="sourcePoint" />
            <mxPoint x="1065" y="460" as="targetPoint" />
          </mxGeometry>
        </mxCell>
        <mxCell id="v5nHHOiwAO_BI3E4K7xh-1" value="" style="endArrow=none;html=1;labelBorderColor=none;fontSize=17;strokeColor=#457B9D;fontColor=#1D3557;labelBackgroundColor=#F1FAEE;" edge="1" parent="1">
          <mxGeometry width="50" height="50" relative="1" as="geometry">
            <mxPoint x="580" y="360" as="sourcePoint" />
            <mxPoint x="620" y="360" as="targetPoint" />
            <Array as="points">
              <mxPoint x="610" y="360" />
            </Array>
          </mxGeometry>
        </mxCell>
        <mxCell id="v5nHHOiwAO_BI3E4K7xh-3" value="Appointment" style="rounded=0;whiteSpace=wrap;html=1;labelBorderColor=none;fontSize=17;fillColor=#A8DADC;strokeColor=#457B9D;fontColor=#1D3557;" vertex="1" parent="1">
          <mxGeometry x="1215" y="260" width="120" height="60" as="geometry" />
        </mxCell>
        <mxCell id="v5nHHOiwAO_BI3E4K7xh-4" value="DealerDetails" style="rounded=0;whiteSpace=wrap;html=1;labelBorderColor=none;fontSize=17;fillColor=#A8DADC;strokeColor=#457B9D;fontColor=#1D3557;" vertex="1" parent="1">
          <mxGeometry x="1230" y="530" width="120" height="60" as="geometry" />
        </mxCell>
        <mxCell id="v5nHHOiwAO_BI3E4K7xh-5" value="" style="endArrow=none;html=1;entryX=0.75;entryY=0;entryDx=0;entryDy=0;labelBorderColor=none;fontSize=17;strokeColor=#457B9D;fontColor=#1D3557;labelBackgroundColor=#F1FAEE;" edge="1" parent="1">
          <mxGeometry width="50" height="50" relative="1" as="geometry">
            <mxPoint x="1261" y="320" as="sourcePoint" />
            <mxPoint x="1101" y="390" as="targetPoint" />
            <Array as="points">
              <mxPoint x="1261" y="358" />
              <mxPoint x="1100" y="358.02" />
            </Array>
          </mxGeometry>
        </mxCell>
        <mxCell id="v5nHHOiwAO_BI3E4K7xh-6" value="" style="endArrow=none;html=1;labelBorderColor=none;fontSize=17;strokeColor=#457B9D;fontColor=#1D3557;labelBackgroundColor=#F1FAEE;" edge="1" parent="1">
          <mxGeometry width="50" height="50" relative="1" as="geometry">
            <mxPoint x="1270" y="530" as="sourcePoint" />
            <mxPoint x="1100" y="450" as="targetPoint" />
            <Array as="points">
              <mxPoint x="1270" y="490" />
              <mxPoint x="1100" y="490" />
            </Array>
          </mxGeometry>
        </mxCell>
        <mxCell id="v5nHHOiwAO_BI3E4K7xh-7" value="" style="endArrow=none;html=1;labelBorderColor=none;fontSize=17;strokeColor=#457B9D;fontColor=#1D3557;labelBackgroundColor=#F1FAEE;" edge="1" parent="1">
          <mxGeometry width="50" height="50" relative="1" as="geometry">
            <mxPoint x="1080" y="460" as="sourcePoint" />
            <mxPoint x="1120" y="460" as="targetPoint" />
            <Array as="points">
              <mxPoint x="1110" y="460" />
            </Array>
          </mxGeometry>
        </mxCell>
        <mxCell id="v5nHHOiwAO_BI3E4K7xh-8" value="" style="endArrow=none;html=1;labelBorderColor=none;fontSize=17;strokeColor=#457B9D;fontColor=#1D3557;labelBackgroundColor=#F1FAEE;" edge="1" parent="1">
          <mxGeometry width="50" height="50" relative="1" as="geometry">
            <mxPoint x="1250" y="510" as="sourcePoint" />
            <mxPoint x="1290" y="510" as="targetPoint" />
            <Array as="points">
              <mxPoint x="1280" y="510" />
            </Array>
          </mxGeometry>
        </mxCell>
        <mxCell id="v5nHHOiwAO_BI3E4K7xh-9" value="" style="endArrow=none;html=1;labelBorderColor=none;fontSize=17;strokeColor=#457B9D;fontColor=#1D3557;labelBackgroundColor=#F1FAEE;" edge="1" parent="1">
          <mxGeometry width="50" height="50" relative="1" as="geometry">
            <mxPoint x="1250" y="519.77" as="sourcePoint" />
            <mxPoint x="1290" y="519.77" as="targetPoint" />
            <Array as="points">
              <mxPoint x="1280" y="519.77" />
            </Array>
          </mxGeometry>
        </mxCell>
        <mxCell id="v5nHHOiwAO_BI3E4K7xh-10" value="" style="endArrow=none;html=1;labelBorderColor=none;fontSize=17;strokeColor=#457B9D;fontColor=#1D3557;labelBackgroundColor=#F1FAEE;" edge="1" parent="1">
          <mxGeometry width="50" height="50" relative="1" as="geometry">
            <mxPoint x="1240" y="330" as="sourcePoint" />
            <mxPoint x="1280" y="330" as="targetPoint" />
            <Array as="points">
              <mxPoint x="1270" y="330" />
            </Array>
          </mxGeometry>
        </mxCell>
        <mxCell id="v5nHHOiwAO_BI3E4K7xh-11" value="" style="endArrow=none;html=1;labelBorderColor=none;fontSize=17;strokeColor=#457B9D;fontColor=#1D3557;labelBackgroundColor=#F1FAEE;" edge="1" parent="1">
          <mxGeometry width="50" height="50" relative="1" as="geometry">
            <mxPoint x="1240" y="340" as="sourcePoint" />
            <mxPoint x="1280" y="340" as="targetPoint" />
            <Array as="points">
              <mxPoint x="1270" y="340" />
            </Array>
          </mxGeometry>
        </mxCell>
        <mxCell id="v5nHHOiwAO_BI3E4K7xh-12" value="" style="endArrow=none;html=1;labelBorderColor=none;fontSize=17;strokeColor=#457B9D;fontColor=#1D3557;labelBackgroundColor=#F1FAEE;" edge="1" parent="1">
          <mxGeometry width="50" height="50" relative="1" as="geometry">
            <mxPoint x="1090" y="379.43" as="sourcePoint" />
            <mxPoint x="1130" y="379.43" as="targetPoint" />
            <Array as="points">
              <mxPoint x="1120" y="379.43" />
            </Array>
          </mxGeometry>
        </mxCell>
        <mxCell id="v5nHHOiwAO_BI3E4K7xh-13" value="" style="endArrow=none;html=1;labelBorderColor=none;fontSize=17;strokeColor=#457B9D;fontColor=#1D3557;labelBackgroundColor=#F1FAEE;" edge="1" parent="1">
          <mxGeometry width="50" height="50" relative="1" as="geometry">
            <mxPoint x="1090" y="370" as="sourcePoint" />
            <mxPoint x="1130" y="370" as="targetPoint" />
            <Array as="points">
              <mxPoint x="1120" y="370" />
            </Array>
          </mxGeometry>
        </mxCell>
      </root>
    </mxGraphModel>
  </diagram>
</mxfile>
